<svg xmlns="http://www.w3.org/2000/svg" width="1200" height="900" viewBox="0 0 1200 900">
  <defs>
    <linearGradient id="bg" x1="0" y1="0" x2="0" y2="1">
      <stop offset="0" stop-color="#ffffff"/>
      <stop offset="1" stop-color="#f3f3f6"/>
    </linearGradient>
    <linearGradient id="shell" x1="0" y1="0" x2="1" y2="1">
      <stop offset="0" stop-color="#c9c1b7"/>
      <stop offset="1" stop-color="#a79f96"/>
    </linearGradient>
    <filter id="shadow" x="-20%" y="-20%" width="140%" height="140%">
      <feDropShadow dx="0" dy="20" stdDeviation="18" flood-color="#000" flood-opacity="0.18"/>
    </filter>
  </defs>

  <rect width="1200" height="900" rx="44" fill="url(#bg)"/>

  <g opacity="0.55">
    <circle cx="210" cy="210" r="6" fill="#0f0f10" opacity="0.35"/>
    <path d="M230 210h250" stroke="#0f0f10" stroke-opacity="0.18" stroke-width="2"/>
    <path d="M230 250h350" stroke="#0f0f10" stroke-opacity="0.12" stroke-width="2"/>
  </g>

  <g filter="url(#shadow)">
    <path d="M520 170c72-30 168-20 232 34 54 46 84 122 72 212-18 130-78 272-166 314-86 42-210 6-256-104-54-128-38-312 38-388 20-20 44-44 80-68z"
          fill="url(#shell)"/>
    <path d="M590 260c52-14 108 2 136 46 34 54 20 154-14 212-28 48-94 64-136 36-62-42-70-190-32-246 12-18 22-34 46-48z"
          fill="#ffffff" opacity="0.16"/>
    <path d="M545 392c82 34 166 34 250 0" stroke="#0f0f10" stroke-opacity="0.18" stroke-width="10" stroke-linecap="round"/>
  </g>

  <text x="90" y="770" font-family="IBM Plex Mono, ui-monospace, monospace" font-size="18" letter-spacing="5" fill="#0f0f10" opacity="0.55">FW / LOOK 02</text>
</svg>

